<svg width="1074" height="208" viewBox="0 0 1074 208" fill="none" xmlns="http://www.w3.org/2000/svg">
<path d="M9.06974 36.3587C9.40266 35.5146 10.5973 35.5146 10.9303 36.3587L12.6691 40.7675C12.7707 41.0253 12.9747 41.2293 13.2325 41.3309L17.6413 43.0697C18.4854 43.4027 18.4854 44.5973 17.6413 44.9303L13.2325 46.6691C12.9747 46.7707 12.7707 46.9747 12.6691 47.2325L10.9303 51.6413C10.5973 52.4854 9.40266 52.4854 9.06974 51.6413L7.33092 47.2325C7.22927 46.9747 7.02527 46.7707 6.76755 46.6691L2.35872 44.9303C1.51457 44.5973 1.51457 43.4027 2.35872 43.0697L6.76755 41.3309C7.02527 41.2293 7.22927 41.0253 7.33092 40.7675L9.06974 36.3587Z" fill="white"/>
<path opacity="0.5" d="M914.07 187.359C914.403 186.515 915.597 186.515 915.93 187.359L917.386 191.05C917.488 191.308 917.692 191.512 917.95 191.614L921.641 193.07C922.485 193.403 922.485 194.597 921.641 194.93L917.95 196.386C917.692 196.488 917.488 196.692 917.386 196.95L915.93 200.641C915.597 201.485 914.403 201.485 914.07 200.641L912.614 196.95C912.512 196.692 912.308 196.488 912.05 196.386L908.359 194.93C907.515 194.597 907.515 193.403 908.359 193.07L912.05 191.614C912.308 191.512 912.512 191.308 912.614 191.05L914.07 187.359Z" fill="white"/>
<path d="M1064.07 67.3587C1064.4 66.5146 1065.6 66.5146 1065.93 67.3587L1067.39 71.0504C1067.49 71.3081 1067.69 71.5121 1067.95 71.6138L1071.64 73.0697C1072.49 73.4027 1072.49 74.5973 1071.64 74.9303L1067.95 76.3862C1067.69 76.4879 1067.49 76.6919 1067.39 76.9496L1065.93 80.6413C1065.6 81.4854 1064.4 81.4854 1064.07 80.6413L1062.61 76.9496C1062.51 76.6919 1062.31 76.4879 1062.05 76.3862L1058.36 74.9303C1057.51 74.5973 1057.51 73.4027 1058.36 73.0697L1062.05 71.6138C1062.31 71.5121 1062.51 71.3081 1062.61 71.0504L1064.07 67.3587Z" fill="white"/>
<circle cx="677" cy="6" r="5.5" stroke="white"/>
<circle cx="135" cy="205" r="3" fill="white"/>
</svg>
