<svg width="511" height="239" viewBox="0 0 511 239" fill="none" xmlns="http://www.w3.org/2000/svg">
<path d="M115.814 2.62576C116.045 2.03938 116.875 2.03938 117.106 2.62576L118.903 7.18279C118.974 7.36181 119.116 7.50353 119.295 7.57413L123.852 9.3714C124.438 9.60266 124.438 10.4325 123.852 10.6638L119.295 12.4611C119.116 12.5317 118.974 12.6734 118.903 12.8524L117.106 17.4094C116.875 17.9958 116.045 17.9958 115.814 17.4094L114.017 12.8524C113.946 12.6734 113.804 12.5317 113.625 12.4611L109.068 10.6638C108.482 10.4325 108.482 9.60266 109.068 9.3714L113.625 7.57413C113.804 7.50353 113.946 7.36181 114.017 7.18279L115.814 2.62576Z" fill="white"/>
<path d="M503.766 58.4451C503.997 57.8587 504.827 57.8587 505.058 58.4451L506.069 61.0095C506.14 61.1885 506.282 61.3302 506.461 61.4008L509.025 62.4122C509.612 62.6434 509.612 63.4733 509.025 63.7046L506.461 64.716C506.282 64.7866 506.14 64.9283 506.069 65.1073L505.058 67.6717C504.827 68.258 503.997 68.258 503.766 67.6717L502.754 65.1073C502.684 64.9283 502.542 64.7866 502.363 64.716L499.799 63.7046C499.212 63.4733 499.212 62.6434 499.799 62.4122L502.363 61.4008C502.542 61.3302 502.684 61.1885 502.754 61.0095L503.766 58.4451Z" fill="white"/>
<path d="M5.60554 227.638C5.83681 227.052 6.66667 227.052 6.89794 227.638L7.90931 230.203C7.97992 230.382 8.12163 230.524 8.30065 230.594L10.865 231.606C11.4514 231.837 11.4514 232.667 10.865 232.898L8.30065 233.909C8.12163 233.98 7.97992 234.122 7.90931 234.301L6.89794 236.865C6.66667 237.451 5.83681 237.451 5.60554 236.865L4.59417 234.301C4.52356 234.122 4.38185 233.98 4.20283 233.909L1.63845 232.898C1.05208 232.667 1.05208 231.837 1.63845 231.606L4.20283 230.594C4.38185 230.524 4.52356 230.382 4.59417 230.203L5.60554 227.638Z" fill="white"/>
</svg>
