<svg width="1270" height="300" viewBox="0 0 1270 300" fill="none" xmlns="http://www.w3.org/2000/svg">
<g filter="url(#filter0_d_1_1941)">
<path d="M50 54C50 48.4772 54.4772 44 60 44H1210C1215.52 44 1220 48.4772 1220 54V234C1220 239.523 1215.52 244 1210 244H60C54.4772 244 50 239.523 50 234V54Z" fill="#0E1B2C"/>
</g>
<mask id="mask0_1_1941" style="mask-type:alpha" maskUnits="userSpaceOnUse" x="50" y="44" width="1170" height="200">
<path d="M50 54C50 48.4772 54.4772 44 60 44H1210C1215.52 44 1220 48.4772 1220 54V234C1220 239.523 1215.52 244 1210 244H60C54.4772 244 50 239.523 50 234V54Z" fill="#0E1B2C"/>
</mask>
<g mask="url(#mask0_1_1941)">
<g opacity="0.2">
<mask id="path-3-inside-1_1_1941" fill="white">
<path d="M726.157 182.982C723.062 185.041 720.469 188.165 718.379 192.354C721.494 178.452 727.668 164.023 739.74 159.651C741.792 159.209 743.981 159 746.617 159C750.59 159 753.901 160.123 756.549 162.369C759.33 164.616 760.721 167.258 760.721 170.297C760.721 174.393 759.884 177.201 757.765 179.315C755.646 181.297 753.177 182.361 750.264 182.361C748.278 182.361 746.366 182.15 743.849 181.225C743.733 181.187 743.562 181.112 743.342 181.016L743.339 181.014C742.805 180.781 741.982 180.421 740.953 180.141C739.628 179.745 738.093 179.315 736.504 179.315C733.061 179.315 729.335 180.868 726.157 182.982Z"/>
<path d="M711.855 163.197C713.526 164.864 714.576 166.858 715.007 169.18C715.088 179.226 715.211 194.762 715.288 205.566C715.251 206.346 715.232 207.143 715.232 207.955V254.928C715.232 258.363 714.106 261.27 711.855 263.649C709.604 265.895 706.757 267.018 703.314 267.018C699.87 267.018 697.023 265.895 694.772 263.649C692.521 261.27 691.395 258.363 691.395 254.928V171.719C691.395 168.284 692.521 165.443 694.772 163.197C697.023 160.818 699.87 159.629 703.314 159.629C706.757 159.629 709.604 160.818 711.855 163.197Z"/>
<path d="M232.929 159C244.185 159 253.256 160.784 260.143 164.351C267.029 167.787 270.472 172.411 270.472 178.225C270.472 181.132 269.611 183.709 267.89 185.955C266.168 188.069 263.917 189.126 261.136 189.126C259.017 189.126 257.295 188.862 255.971 188.333C254.647 187.673 253.323 186.88 251.998 185.955C250.806 184.898 249.615 184.039 248.423 183.378C247.098 182.718 245.112 182.123 242.463 181.595C239.947 181.066 237.895 180.802 236.306 180.802C226.374 180.802 218.56 183.907 212.866 190.117C207.304 196.195 204.523 204.189 204.523 214.099C204.523 223.613 207.37 231.541 213.065 237.883C218.759 244.093 226.042 247.198 234.915 247.198C241.404 247.198 246.238 246.405 249.416 244.82C250.21 244.423 251.27 243.763 252.594 242.838C254.051 241.781 255.375 240.988 256.567 240.459C257.759 239.931 259.216 239.667 260.937 239.667C264.248 239.667 266.83 240.724 268.684 242.838C270.67 244.952 271.664 247.661 271.664 250.964C271.664 254.135 269.81 257.108 266.102 259.883C262.394 262.658 257.494 264.904 251.402 266.622C245.311 268.207 238.822 269 231.935 269C221.739 269 212.734 266.622 204.92 261.865C197.24 257.108 191.28 250.568 187.043 242.243C182.805 233.787 180.686 224.405 180.686 214.099C180.686 203.396 182.871 193.883 187.241 185.559C191.744 177.234 197.968 170.76 205.914 166.135C213.859 161.378 222.864 159 232.929 159Z"/>
<path d="M166.409 246.207C168.925 248.85 170.183 251.823 170.183 255.126C170.183 258.429 168.859 261.204 166.21 263.45C163.694 265.697 160.979 266.82 158.066 266.82C154.623 266.82 151.709 265.499 149.326 262.856L111.974 220.977V220.944C109.718 218.597 108.33 215.405 108.33 211.889C108.33 208.352 109.733 205.144 112.012 202.794L146.346 164.748C148.862 162.237 151.776 160.982 155.086 160.982C158 160.982 160.582 162.237 162.833 164.748C165.217 167.126 166.409 169.571 166.409 172.081C166.409 175.252 164.82 178.225 161.641 181L134.212 208.55L166.409 246.207Z"/>
<path d="M103.838 211.852L103.837 172.081C103.837 168.646 102.711 165.805 100.46 163.559C98.2088 161.18 95.3616 159.991 91.9185 159.991C88.4753 159.991 85.6282 161.18 83.3769 163.559C81.1256 165.805 80 168.646 80 172.081V254.77C80 258.206 81.1256 261.113 83.3769 263.491C85.6282 265.737 88.4753 266.861 91.9185 266.861C95.3616 266.861 98.2088 265.737 100.46 263.491C102.711 261.113 103.837 258.206 103.837 254.77L103.838 211.852Z"/>
<path fill-rule="evenodd" clip-rule="evenodd" d="M439.5 242.64C444.267 234.183 446.651 224.67 446.651 214.099C446.651 203.529 444.267 194.081 439.5 185.757C434.732 177.3 428.177 170.76 419.834 166.135C411.624 161.378 402.553 159 392.62 159C382.556 159 373.419 161.378 365.208 166.135C356.998 170.76 350.509 177.3 345.741 185.757C340.974 194.081 338.59 203.529 338.59 214.099C338.59 224.67 340.974 234.183 345.741 242.64C350.509 250.964 356.998 257.438 365.208 262.063C373.419 266.688 382.556 269 392.62 269C402.553 269 411.624 266.688 419.834 262.063C428.177 257.438 434.732 250.964 439.5 242.64ZM418.642 196.856C421.423 201.877 422.814 207.625 422.814 214.099C422.814 220.574 421.423 226.321 418.642 231.342C415.994 236.363 412.352 240.261 407.717 243.036C403.215 245.811 398.182 247.198 392.62 247.198C387.059 247.198 381.96 245.811 377.325 243.036C372.823 240.261 369.181 236.363 366.4 231.342C363.751 226.321 362.427 220.574 362.427 214.099C362.427 207.625 363.751 201.877 366.4 196.856C369.181 191.703 372.823 187.739 377.325 184.964C381.96 182.189 387.059 180.802 392.62 180.802C398.182 180.802 403.215 182.189 407.717 184.964C412.352 187.739 415.994 191.703 418.642 196.856Z"/>
<path d="M547.238 161.18C550.416 161.18 553.064 162.237 555.183 164.351C557.302 166.333 558.362 168.844 558.362 171.883C558.362 173.468 557.832 175.45 556.772 177.829L519.627 259.486C518.7 261.733 517.309 263.517 515.455 264.838C513.734 266.159 511.747 266.886 509.496 267.018L507.708 267.216C505.457 267.216 503.338 266.556 501.352 265.234C499.498 263.781 498.041 261.865 496.981 259.486L460.034 177.829C459.107 175.715 458.644 173.601 458.644 171.486C458.644 168.844 459.769 166.465 462.021 164.351C464.272 162.105 467.053 160.982 470.364 160.982C472.88 160.982 475.197 161.643 477.316 162.964C479.435 164.285 481.024 166.135 482.083 168.514L509.496 231.144L536.71 168.712C537.769 166.201 539.226 164.285 541.08 162.964C542.934 161.643 544.986 161.048 547.238 161.18Z"/>
<path fill-rule="evenodd" clip-rule="evenodd" d="M667.741 219.252C670.125 217.27 671.383 214.694 671.515 211.523C671.515 202.141 669.198 193.42 664.563 185.36C659.928 177.3 653.704 170.892 645.891 166.135C638.21 161.378 630 159 621.259 159C612.387 159 604.044 161.312 596.231 165.937C588.417 170.429 582.127 176.97 577.36 185.559C572.592 194.147 570.209 204.123 570.209 215.486C570.209 225.661 572.46 234.844 576.962 243.036C581.465 251.096 587.821 257.438 596.032 262.063C604.375 266.688 614.108 269 625.232 269C631.589 269 637.879 267.943 644.103 265.829C650.327 263.715 655.293 261.138 659.001 258.099C662.709 255.192 664.563 251.955 664.563 248.387C664.563 245.745 663.57 243.432 661.583 241.45C659.597 239.468 657.213 238.477 654.432 238.477C652.314 238.477 650.062 239.072 647.679 240.261C647.016 240.658 645.758 241.45 643.904 242.64C642.183 243.697 639.799 244.754 636.753 245.811C633.707 246.736 629.47 247.198 624.04 247.198C616.889 247.198 610.466 245.018 604.772 240.658C599.078 236.165 595.436 230.021 593.847 222.225H659.398C662.577 222.225 665.358 221.234 667.741 219.252ZM594.046 202.405C596.827 188.003 605.898 180.802 621.259 180.802C627.483 180.802 633.045 182.784 637.945 186.748C642.845 190.712 645.56 195.468 646.089 201.018V202.405H594.046Z"/>
<path d="M769.579 244.622C769.579 247 770.175 248.982 771.367 250.568C776.134 257.042 782.292 261.733 789.84 264.64C797.389 267.547 805.533 269 814.273 269C820.63 269 826.788 267.745 832.747 265.234C838.838 262.724 843.804 259.09 847.645 254.333C851.485 249.444 853.405 243.763 853.405 237.288C853.405 230.153 851.75 224.405 848.439 220.045C845.129 215.685 841.09 212.447 836.322 210.333C831.555 208.219 825.596 206.171 818.445 204.189C813.28 202.736 809.241 201.547 806.328 200.622C803.547 199.565 801.229 198.177 799.375 196.459C797.521 194.61 796.594 192.231 796.594 189.324C796.594 182.057 801.626 178.423 811.691 178.423C816.458 178.423 820.696 179.282 824.404 181C828.244 182.718 831.356 185.03 833.74 187.937C835.594 189.787 837.978 190.712 840.891 190.712C843.275 190.712 845.394 189.985 847.248 188.532C849.764 186.55 851.022 184.039 851.022 181C851.022 178.357 850.161 175.979 848.439 173.865C844.599 168.976 839.302 165.276 832.548 162.766C825.794 160.255 819.04 159 812.287 159C805.665 159 799.375 160.321 793.416 162.964C787.589 165.474 782.822 169.108 779.114 173.865C775.538 178.489 773.75 183.973 773.75 190.315C773.75 197.583 775.472 203.396 778.915 207.757C782.491 211.985 786.662 215.156 791.429 217.27C796.329 219.384 802.619 221.499 810.3 223.613C817.716 225.595 823.146 227.577 826.589 229.559C830.164 231.541 831.952 234.447 831.952 238.279C831.952 245.679 826.787 249.577 816.458 249.973C810.367 249.973 805.136 248.982 800.766 247C796.528 245.018 792.423 241.979 788.45 237.883C785.934 235.372 783.285 234.117 780.504 234.117C778.518 234.117 776.597 234.712 774.744 235.901C771.3 238.279 769.579 241.186 769.579 244.622Z"/>
<path fill-rule="evenodd" clip-rule="evenodd" d="M968.701 211.523C968.569 214.694 967.31 217.27 964.927 219.252C962.543 221.234 959.762 222.225 956.584 222.225H891.032C892.621 230.021 896.263 236.165 901.958 240.658C907.652 245.018 914.075 247.198 921.226 247.198C926.655 247.198 930.893 246.736 933.939 245.811C936.985 244.754 939.368 243.697 941.09 242.64C942.944 241.45 944.202 240.658 944.864 240.261C947.248 239.072 949.499 238.477 951.618 238.477C954.399 238.477 956.783 239.468 958.769 241.45C960.755 243.432 961.749 245.745 961.749 248.387C961.749 251.955 959.895 255.192 956.187 258.099C952.479 261.138 947.513 263.715 941.289 265.829C935.065 267.943 928.774 269 922.418 269C911.294 269 901.56 266.688 893.217 262.063C885.007 257.438 878.65 251.096 874.148 243.036C869.645 234.844 867.394 225.661 867.394 215.486C867.394 204.123 869.778 194.147 874.545 185.559C879.312 176.97 885.603 170.429 893.416 165.937C901.229 161.312 909.572 159 918.445 159C927.185 159 935.395 161.378 943.076 166.135C950.889 170.892 957.114 177.3 961.749 185.36C966.383 193.42 968.701 202.141 968.701 211.523ZM918.445 180.802C903.083 180.802 894.012 188.003 891.231 202.405H943.275V201.018C942.745 195.468 940.03 190.712 935.131 186.748C930.231 182.784 924.669 180.802 918.445 180.802Z"/>
<path fill-rule="evenodd" clip-rule="evenodd" d="M1083.91 162.369C1081.66 160.123 1078.81 159 1075.37 159C1071.92 159 1069.08 160.189 1066.83 162.568C1064.58 164.814 1064.26 166.393 1064.26 169.829C1060.42 166.261 1053.6 162.939 1049.62 161.725C1043.83 159.961 1037.82 159 1031.47 159C1022.6 159 1014.45 161.378 1007.04 166.135C999.752 170.76 993.991 177.3 989.754 185.757C985.516 194.081 983.397 203.529 983.397 214.099C983.397 224.67 985.516 234.117 989.754 242.441C994.124 250.766 1000.02 257.306 1007.43 262.063C1014.85 266.688 1023.13 269 1032.26 269C1038.49 269 1044.38 267.679 1049.94 265.036C1055.64 262.261 1060.14 258.958 1063.45 255.126C1063.58 258.562 1064.71 261.402 1066.83 263.649C1069.08 265.895 1071.92 267.018 1075.37 267.018C1078.81 267.018 1081.66 265.895 1083.91 263.649C1086.16 261.27 1087.29 258.363 1087.29 254.928V171.09C1087.29 167.523 1086.16 164.616 1083.91 162.369ZM1056.3 237.883C1050.87 244.093 1043.85 247.198 1035.24 247.198C1026.63 247.198 1019.62 244.093 1014.19 237.883C1008.89 231.541 1006.24 223.613 1006.24 214.099C1006.24 204.586 1008.96 196.658 1014.39 190.315C1019.81 183.973 1026.77 180.802 1035.24 180.802C1043.85 180.802 1050.87 183.973 1056.3 190.315C1061.73 196.658 1064.44 204.586 1064.44 214.099C1064.44 223.613 1061.73 231.541 1056.3 237.883Z"/>
<path d="M1106.96 250.568C1105.77 248.982 1105.17 247 1105.17 244.622C1105.17 241.186 1106.9 238.279 1110.34 235.901C1112.19 234.712 1114.11 234.117 1116.1 234.117C1118.88 234.117 1121.53 235.372 1124.04 237.883C1128.02 241.979 1132.12 245.018 1136.36 247C1140.73 248.982 1145.96 249.973 1152.05 249.973C1162.38 249.577 1167.55 245.679 1167.55 238.279C1167.55 234.447 1165.76 231.541 1162.18 229.559C1158.74 227.577 1153.31 225.595 1145.89 223.613C1138.21 221.499 1131.92 219.384 1127.02 217.27C1122.26 215.156 1118.09 211.985 1114.51 207.757C1111.07 203.396 1109.34 197.583 1109.34 190.315C1109.34 183.973 1111.13 178.489 1114.71 173.865C1118.42 169.108 1123.18 165.474 1129.01 162.964C1134.97 160.321 1141.26 159 1147.88 159C1154.64 159 1161.39 160.255 1168.14 162.766C1174.9 165.276 1180.19 168.976 1184.03 173.865C1185.76 175.979 1186.62 178.357 1186.62 181C1186.62 184.039 1185.36 186.55 1182.84 188.532C1180.99 189.985 1178.87 190.712 1176.49 190.712C1173.57 190.712 1171.19 189.787 1169.33 187.937C1166.95 185.03 1163.84 182.718 1160 181C1156.29 179.282 1152.05 178.423 1147.29 178.423C1137.22 178.423 1132.19 182.057 1132.19 189.324C1132.19 192.231 1133.12 194.61 1134.97 196.459C1136.82 198.177 1139.14 199.565 1141.92 200.622C1144.84 201.547 1148.87 202.736 1154.04 204.189C1161.19 206.171 1167.15 208.219 1171.92 210.333C1176.68 212.447 1180.72 215.685 1184.03 220.045C1187.34 224.405 1189 230.153 1189 237.288C1189 243.763 1187.08 249.444 1183.24 254.333C1179.4 259.09 1174.43 262.724 1168.34 265.234C1162.38 267.745 1156.22 269 1149.87 269C1141.13 269 1132.98 267.547 1125.43 264.64C1117.89 261.733 1111.73 257.042 1106.96 250.568Z"/>
</mask>
<path d="M103.338 211.852V211.854H104.338V211.852H103.338ZM726.157 182.982L726.711 183.815L726.157 182.982ZM718.379 192.354L717.403 192.135L719.274 192.8L718.379 192.354ZM739.74 159.651L739.529 158.674L739.463 158.688L739.399 158.711L739.74 159.651ZM756.549 162.369L755.902 163.132L755.912 163.14L755.921 163.147L756.549 162.369ZM757.765 179.315L758.448 180.046L758.46 180.035L758.471 180.023L757.765 179.315ZM743.849 181.225L744.195 180.287L744.18 180.281L744.165 180.276L743.849 181.225ZM743.342 181.016L743.742 180.099L743.734 180.096L743.342 181.016ZM743.339 181.014L742.939 181.931L742.947 181.934L743.339 181.014ZM740.953 180.141L740.666 181.099L740.678 181.103L740.69 181.106L740.953 180.141ZM711.855 163.197L711.129 163.884L711.139 163.895L711.149 163.905L711.855 163.197ZM715.007 169.18L716.007 169.172L716.007 169.084L715.991 168.997L715.007 169.18ZM715.288 205.566L716.286 205.614L716.288 205.586L716.288 205.559L715.288 205.566ZM711.855 263.649L712.561 264.357L712.572 264.346L712.581 264.336L711.855 263.649ZM694.772 263.649L694.046 264.336L694.056 264.346L694.066 264.357L694.772 263.649ZM694.772 163.197L695.478 163.905L695.488 163.895L695.498 163.884L694.772 163.197ZM260.143 164.351L259.682 165.239L259.689 165.243L259.696 165.246L260.143 164.351ZM267.89 185.955L268.665 186.586L268.674 186.575L268.683 186.563L267.89 185.955ZM255.971 188.333L255.525 189.228L255.562 189.247L255.6 189.262L255.971 188.333ZM251.998 185.955L251.335 186.703L251.378 186.742L251.426 186.775L251.998 185.955ZM248.423 183.378L248.908 182.504L248.889 182.493L248.869 182.484L248.423 183.378ZM242.463 181.595L242.258 182.573L242.268 182.575L242.463 181.595ZM212.866 190.117L212.129 189.441L212.128 189.442L212.866 190.117ZM213.065 237.883L212.32 238.551L212.328 238.559L213.065 237.883ZM249.416 244.82L249.862 245.715L249.416 244.82ZM252.594 242.838L253.167 243.658L253.174 243.653L253.181 243.647L252.594 242.838ZM268.684 242.838L267.932 243.497L267.944 243.51L267.955 243.523L268.684 242.838ZM266.102 259.883L266.701 260.684L266.102 259.883ZM251.402 266.622L251.654 267.589L251.664 267.587L251.674 267.584L251.402 266.622ZM204.92 261.865L204.394 262.715L204.4 262.719L204.92 261.865ZM187.043 242.243L186.149 242.691L186.151 242.697L187.043 242.243ZM187.241 185.559L186.362 185.083L186.356 185.094L187.241 185.559ZM205.914 166.135L206.417 166.999L206.427 166.993L205.914 166.135ZM166.409 246.207L165.649 246.857L165.666 246.877L165.685 246.897L166.409 246.207ZM166.21 263.45L165.563 262.688L165.554 262.696L165.544 262.704L166.21 263.45ZM149.326 262.856L148.579 263.521L148.583 263.526L149.326 262.856ZM111.974 220.977H110.974V221.358L111.228 221.642L111.974 220.977ZM111.974 220.944H112.974V220.541L112.695 220.251L111.974 220.944ZM112.012 202.794L112.73 203.49L112.742 203.477L112.754 203.464L112.012 202.794ZM146.346 164.748L145.64 164.04L145.621 164.058L145.604 164.078L146.346 164.748ZM162.833 164.748L162.089 165.415L162.107 165.436L162.127 165.456L162.833 164.748ZM161.641 181L160.984 180.247L160.957 180.27L160.933 180.294L161.641 181ZM134.212 208.55L133.504 207.844L132.853 208.498L133.452 209.199L134.212 208.55ZM103.838 211.852L104.838 211.852V211.852L103.838 211.852ZM103.837 172.081H102.837V172.081L103.837 172.081ZM100.46 163.559L99.7338 164.246L99.7436 164.256L99.7537 164.266L100.46 163.559ZM83.3769 163.559L84.0832 164.266L84.0933 164.256L84.1031 164.246L83.3769 163.559ZM83.3769 263.491L82.6506 264.179L82.6605 264.189L82.6706 264.199L83.3769 263.491ZM100.46 263.491L101.166 264.199L101.176 264.189L101.186 264.179L100.46 263.491ZM103.837 254.77L102.837 254.77V254.77H103.837ZM439.5 242.64L440.368 243.137L440.371 243.131L439.5 242.64ZM439.5 185.757L438.629 186.248L438.632 186.254L439.5 185.757ZM419.834 166.135L419.333 167L419.341 167.005L419.349 167.01L419.834 166.135ZM365.208 166.135L365.699 167.006L365.709 167L365.208 166.135ZM345.741 185.757L346.609 186.254L346.612 186.248L345.741 185.757ZM345.741 242.64L344.87 243.131L344.873 243.137L345.741 242.64ZM365.208 262.063L365.699 261.192L365.208 262.063ZM419.834 262.063L419.349 261.188L419.344 261.192L419.834 262.063ZM418.642 196.856L417.753 197.313L417.76 197.327L417.768 197.34L418.642 196.856ZM418.642 231.342L417.768 230.858L417.763 230.867L417.758 230.876L418.642 231.342ZM407.717 243.036L407.204 242.178L407.193 242.185L407.717 243.036ZM377.325 243.036L376.8 243.887L376.811 243.894L377.325 243.036ZM366.4 231.342L365.515 231.809L365.52 231.818L365.525 231.827L366.4 231.342ZM366.4 196.856L365.52 196.381L365.515 196.389L366.4 196.856ZM377.325 184.964L376.811 184.106L376.8 184.113L377.325 184.964ZM407.717 184.964L407.193 185.815L407.204 185.822L407.717 184.964ZM547.238 161.18L547.179 162.178L547.208 162.18H547.238V161.18ZM555.183 164.351L554.477 165.059L554.488 165.071L554.5 165.082L555.183 164.351ZM556.772 177.829L557.683 178.243L557.686 178.236L556.772 177.829ZM519.627 259.486L518.716 259.072L518.709 259.089L518.702 259.105L519.627 259.486ZM515.455 264.838L514.875 264.023L514.86 264.034L514.846 264.045L515.455 264.838ZM509.496 267.018L509.437 266.02L509.411 266.021L509.386 266.024L509.496 267.018ZM507.708 267.216V268.216H507.763L507.818 268.21L507.708 267.216ZM501.352 265.234L500.735 266.021L500.765 266.045L500.798 266.067L501.352 265.234ZM496.981 259.486L497.895 259.08L497.893 259.074L496.981 259.486ZM460.034 177.829L459.118 178.23L459.123 178.241L460.034 177.829ZM462.021 164.351L462.705 165.08L462.716 165.07L462.727 165.059L462.021 164.351ZM482.083 168.514L483 168.113L482.997 168.107L482.083 168.514ZM509.496 231.144L508.58 231.545L509.498 233.642L510.413 231.544L509.496 231.144ZM536.71 168.712L537.626 169.111L537.631 169.1L536.71 168.712ZM671.515 211.523L672.515 211.564L672.515 211.543V211.523H671.515ZM664.563 185.36L665.43 184.862L664.563 185.36ZM645.891 166.135L645.364 166.985L645.371 166.989L645.891 166.135ZM596.231 165.937L596.729 166.804L596.74 166.797L596.231 165.937ZM577.36 185.559L578.234 186.044L577.36 185.559ZM576.962 243.036L576.086 243.518L576.089 243.524L576.962 243.036ZM596.032 262.063L595.541 262.934L595.547 262.938L596.032 262.063ZM659.001 258.099L658.384 257.312L658.376 257.319L658.367 257.326L659.001 258.099ZM647.679 240.261L647.232 239.366L647.198 239.384L647.165 239.403L647.679 240.261ZM643.904 242.64L644.428 243.492L644.436 243.487L644.444 243.481L643.904 242.64ZM636.753 245.811L637.044 246.768L637.063 246.762L637.081 246.756L636.753 245.811ZM604.772 240.658L604.153 241.443L604.158 241.447L604.164 241.452L604.772 240.658ZM593.847 222.225V221.225H592.622L592.867 222.425L593.847 222.225ZM594.046 202.405L593.064 202.216L592.834 203.405H594.046V202.405ZM646.089 201.018H647.089V200.97L647.085 200.923L646.089 201.018ZM646.089 202.405V203.405H647.089V202.405H646.089ZM771.367 250.568L772.172 249.975L772.166 249.967L771.367 250.568ZM832.747 265.234L832.366 264.31L832.358 264.313L832.747 265.234ZM847.645 254.333L848.423 254.962L848.431 254.951L847.645 254.333ZM848.439 220.045L849.236 219.44L848.439 220.045ZM818.445 204.189L818.174 205.152L818.177 205.153L818.445 204.189ZM806.328 200.622L805.972 201.556L805.998 201.566L806.025 201.575L806.328 200.622ZM799.375 196.459L798.669 197.167L798.682 197.18L798.695 197.193L799.375 196.459ZM824.404 181L823.983 181.907L823.996 181.913L824.404 181ZM833.74 187.937L832.967 188.571L832.998 188.61L833.034 188.645L833.74 187.937ZM847.248 188.532L847.865 189.319L847.866 189.317L847.248 188.532ZM848.439 173.865L847.653 174.483L847.658 174.49L847.664 174.496L848.439 173.865ZM793.416 162.964L793.812 163.882L793.821 163.878L793.416 162.964ZM779.114 173.865L778.325 173.25L778.323 173.253L779.114 173.865ZM778.915 207.757L778.13 208.376L778.141 208.39L778.151 208.402L778.915 207.757ZM791.429 217.27L791.024 218.184L791.033 218.188L791.429 217.27ZM810.3 223.613L810.035 224.577L810.042 224.579L810.3 223.613ZM826.589 229.559L826.09 230.425L826.097 230.429L826.104 230.433L826.589 229.559ZM816.458 249.973V250.973H816.477L816.497 250.972L816.458 249.973ZM800.766 247L800.342 247.906L800.352 247.911L800.766 247ZM788.45 237.883L789.168 237.187L789.162 237.181L789.156 237.175L788.45 237.883ZM774.744 235.901L774.204 235.059L774.189 235.068L774.175 235.078L774.744 235.901ZM968.701 211.523L969.7 211.564L969.701 211.543V211.523H968.701ZM891.032 222.225V221.225H889.808L890.052 222.425L891.032 222.225ZM901.958 240.658L901.338 241.443L901.344 241.447L901.35 241.452L901.958 240.658ZM933.939 245.811L934.229 246.768L934.248 246.762L934.267 246.756L933.939 245.811ZM941.09 242.64L941.613 243.492L941.622 243.487L941.63 243.481L941.09 242.64ZM944.864 240.261L944.418 239.366L944.383 239.384L944.35 239.403L944.864 240.261ZM956.187 258.099L955.57 257.312L955.561 257.319L955.553 257.326L956.187 258.099ZM893.217 262.063L892.727 262.934L892.733 262.938L893.217 262.063ZM874.148 243.036L873.271 243.518L873.275 243.524L874.148 243.036ZM874.545 185.559L875.419 186.044L874.545 185.559ZM893.416 165.937L893.914 166.804L893.925 166.797L893.416 165.937ZM943.076 166.135L942.55 166.985L942.556 166.989L943.076 166.135ZM961.748 185.36L962.615 184.862L961.748 185.36ZM891.231 202.405L890.249 202.216L890.019 203.405H891.231V202.405ZM943.275 202.405V203.405H944.275V202.405H943.275ZM943.275 201.018H944.275V200.97L944.27 200.923L943.275 201.018ZM1083.91 162.369L1083.2 163.077V163.077L1083.91 162.369ZM1066.83 162.568L1067.53 163.275L1067.54 163.265L1067.55 163.255L1066.83 162.568ZM1064.26 169.829L1063.57 170.561L1065.26 172.123V169.829H1064.26ZM1049.62 161.725L1049.91 160.769V160.769L1049.62 161.725ZM1007.04 166.135L1007.57 166.979L1007.58 166.977L1007.04 166.135ZM989.754 185.757L990.645 186.21L990.648 186.205L989.754 185.757ZM989.754 242.441L988.862 242.895L988.868 242.906L989.754 242.441ZM1007.43 262.063L1006.89 262.905L1006.9 262.912L1007.43 262.063ZM1049.94 265.036L1050.37 265.939L1050.38 265.935L1049.94 265.036ZM1063.45 255.126L1064.45 255.088L1064.35 252.553L1062.69 254.472L1063.45 255.126ZM1066.83 263.649L1066.1 264.335L1066.11 264.346L1066.12 264.357L1066.83 263.649ZM1083.91 263.649L1084.62 264.357L1084.63 264.346L1084.64 264.336L1083.91 263.649ZM1056.3 237.883L1057.05 238.541L1057.06 238.533L1056.3 237.883ZM1014.19 237.883L1013.42 238.524L1013.43 238.533L1013.43 238.541L1014.19 237.883ZM1106.96 250.568L1107.77 249.975L1107.76 249.967L1106.96 250.568ZM1110.34 235.901L1109.8 235.059L1109.78 235.068L1109.77 235.078L1110.34 235.901ZM1124.04 237.883L1124.76 237.187L1124.76 237.181L1124.75 237.175L1124.04 237.883ZM1136.36 247L1135.94 247.906L1135.95 247.911L1136.36 247ZM1152.05 249.973V250.973H1152.07L1152.09 250.972L1152.05 249.973ZM1162.18 229.559L1161.68 230.425L1161.69 230.429L1161.7 230.433L1162.18 229.559ZM1145.89 223.613L1145.63 224.577L1145.64 224.579L1145.89 223.613ZM1127.02 217.27L1126.62 218.184L1126.63 218.188L1127.02 217.27ZM1114.51 207.757L1113.72 208.376L1113.74 208.39L1113.75 208.402L1114.51 207.757ZM1114.71 173.865L1113.92 173.25L1113.92 173.253L1114.71 173.865ZM1129.01 162.964L1129.41 163.882L1129.42 163.878L1129.01 162.964ZM1184.03 173.865L1183.25 174.483L1183.25 174.49L1183.26 174.496L1184.03 173.865ZM1182.84 188.532L1183.46 189.319L1183.46 189.317L1182.84 188.532ZM1169.33 187.937L1168.56 188.571L1168.59 188.61L1168.63 188.645L1169.33 187.937ZM1160 181L1159.58 181.907L1159.59 181.913L1160 181ZM1134.97 196.459L1134.26 197.167L1134.28 197.18L1134.29 197.193L1134.97 196.459ZM1141.92 200.622L1141.57 201.556L1141.59 201.566L1141.62 201.575L1141.92 200.622ZM1154.04 204.189L1153.77 205.152L1153.77 205.153L1154.04 204.189ZM1184.03 220.045L1184.83 219.44L1184.03 220.045ZM1183.24 254.333L1184.02 254.962L1184.03 254.951L1183.24 254.333ZM1168.34 265.234L1167.96 264.31L1167.95 264.313L1168.34 265.234ZM725.603 182.149C722.33 184.327 719.633 187.602 717.484 191.907L719.274 192.8C721.306 188.728 723.794 185.755 726.711 183.815L725.603 182.149ZM719.355 192.572C720.9 185.676 723.193 178.703 726.564 172.933C729.934 167.165 734.337 162.671 740.08 160.591L739.399 158.711C733.07 161.003 728.351 165.91 724.837 171.924C721.324 177.938 718.973 185.13 717.403 192.135L719.355 192.572ZM739.95 160.629C741.919 160.204 744.035 160 746.617 160V158C743.927 158 741.665 158.213 739.529 158.674L739.95 160.629ZM746.617 160C750.389 160 753.46 161.061 755.902 163.132L757.196 161.607C754.341 159.185 750.791 158 746.617 158V160ZM755.921 163.147C758.513 165.241 759.721 167.615 759.721 170.297H761.721C761.721 166.901 760.147 163.99 757.178 161.591L755.921 163.147ZM759.721 170.297C759.721 174.259 758.913 176.757 757.058 178.608L758.471 180.023C760.854 177.646 761.721 174.528 761.721 170.297H759.721ZM757.082 178.585C755.132 180.409 752.903 181.361 750.264 181.361V183.361C753.452 183.361 756.16 182.186 758.448 180.046L757.082 178.585ZM750.264 181.361C748.373 181.361 746.581 181.164 744.195 180.287L743.504 182.164C746.15 183.136 748.182 183.361 750.264 183.361V181.361ZM744.165 180.276C744.103 180.256 743.984 180.205 743.742 180.099L742.942 181.932C743.14 182.019 743.364 182.117 743.534 182.174L744.165 180.276ZM743.734 180.096L743.731 180.094L742.947 181.934L742.95 181.936L743.734 180.096ZM743.739 180.098C743.201 179.863 742.32 179.477 741.215 179.176L740.69 181.106C741.643 181.365 742.408 181.699 742.939 181.931L743.739 180.098ZM741.239 179.183C739.918 178.788 738.255 178.315 736.504 178.315V180.315C737.931 180.315 739.339 180.702 740.666 181.099L741.239 179.183ZM736.504 178.315C732.787 178.315 728.867 179.978 725.603 182.149L726.711 183.815C729.804 181.757 733.335 180.315 736.504 180.315V178.315ZM711.149 163.905C712.676 165.428 713.63 167.239 714.024 169.362L715.991 168.997C715.523 166.476 714.375 164.299 712.561 162.489L711.149 163.905ZM714.007 169.188C714.088 179.234 714.211 194.769 714.288 205.573L716.288 205.559C716.211 194.754 716.088 179.218 716.007 169.172L714.007 169.188ZM714.289 205.519C714.251 206.315 714.232 207.127 714.232 207.955H716.232C716.232 207.158 716.25 206.377 716.286 205.614L714.289 205.519ZM714.232 207.955V254.928H716.232V207.955H714.232ZM714.232 254.928C714.232 258.121 713.195 260.778 711.129 262.961L712.581 264.336C715.018 261.762 716.232 258.605 716.232 254.928H714.232ZM711.149 262.941C709.101 264.984 706.516 266.018 703.314 266.018V268.018C706.997 268.018 710.106 266.806 712.561 264.357L711.149 262.941ZM703.314 266.018C700.111 266.018 697.526 264.984 695.478 262.941L694.066 264.357C696.521 266.806 699.63 268.018 703.314 268.018V266.018ZM695.498 262.961C693.432 260.778 692.395 258.121 692.395 254.928H690.395C690.395 258.605 691.609 261.762 694.046 264.336L695.498 262.961ZM692.395 254.928V171.719H690.395V254.928H692.395ZM692.395 171.719C692.395 168.526 693.431 165.947 695.478 163.905L694.066 162.489C691.61 164.939 690.395 168.042 690.395 171.719H692.395ZM695.498 163.884C697.55 161.717 700.129 160.629 703.314 160.629V158.629C699.612 158.629 696.496 159.92 694.046 162.509L695.498 163.884ZM703.314 160.629C706.498 160.629 709.077 161.717 711.129 163.884L712.581 162.509C710.131 159.92 707.016 158.629 703.314 158.629V160.629ZM232.929 160C244.092 160 252.988 161.771 259.682 165.239L260.603 163.463C253.525 159.797 244.278 158 232.929 158V160ZM259.696 165.246C266.372 168.577 269.472 172.916 269.472 178.225H271.472C271.472 171.907 267.686 166.997 260.589 163.457L259.696 165.246ZM269.472 178.225C269.472 180.919 268.68 183.28 267.096 185.347L268.683 186.563C270.542 184.137 271.472 181.346 271.472 178.225H269.472ZM267.114 185.324C265.587 187.199 263.623 188.126 261.136 188.126V190.126C264.21 190.126 266.749 188.939 268.665 186.586L267.114 185.324ZM261.136 188.126C259.088 188.126 257.505 187.869 256.342 187.405L255.6 189.262C257.085 189.855 258.946 190.126 261.136 190.126V188.126ZM256.417 187.439C255.141 186.802 253.859 186.035 252.571 185.135L251.426 186.775C252.786 187.725 254.153 188.544 255.525 189.228L256.417 187.439ZM252.662 185.207C251.424 184.109 250.173 183.205 248.908 182.504L247.938 184.253C249.056 184.873 250.189 185.687 251.335 186.703L252.662 185.207ZM248.869 182.484C247.425 181.763 245.336 181.148 242.659 180.614L242.268 182.575C244.888 183.098 246.771 183.672 247.976 184.273L248.869 182.484ZM242.669 180.616C240.121 180.081 237.993 179.802 236.306 179.802V181.802C237.797 181.802 239.773 182.051 242.258 182.573L242.669 180.616ZM236.306 179.802C226.148 179.802 218.047 182.987 212.129 189.441L213.603 190.793C219.074 184.826 226.599 181.802 236.306 181.802V179.802ZM212.128 189.442C206.365 195.74 203.523 203.993 203.523 214.099H205.523C205.523 204.386 208.243 196.65 213.604 190.792L212.128 189.442ZM203.523 214.099C203.523 223.828 206.442 232.003 212.321 238.551L213.809 237.215C208.299 231.078 205.523 223.397 205.523 214.099H203.523ZM212.328 238.559C218.222 244.988 225.779 248.198 234.915 248.198V246.198C226.306 246.198 219.296 243.199 213.802 237.207L212.328 238.559ZM234.915 248.198C241.451 248.198 246.473 247.405 249.862 245.715L248.969 243.925C246.002 245.406 241.357 246.198 234.915 246.198V248.198ZM249.862 245.715C250.723 245.285 251.829 244.592 253.167 243.658L252.022 242.018C250.711 242.934 249.698 243.561 248.969 243.925L249.862 245.715ZM253.181 243.647C254.601 242.617 255.864 241.865 256.972 241.374L256.162 239.545C254.887 240.111 253.501 240.945 252.007 242.028L253.181 243.647ZM256.972 241.374C258.003 240.917 259.313 240.667 260.937 240.667V238.667C259.118 238.667 257.515 238.945 256.162 239.545L256.972 241.374ZM260.937 240.667C264.016 240.667 266.302 241.639 267.932 243.497L269.436 242.179C267.358 239.809 264.48 238.667 260.937 238.667V240.667ZM267.955 243.523C269.743 245.425 270.664 247.877 270.664 250.964H272.664C272.664 247.444 271.598 244.479 269.413 242.153L267.955 243.523ZM270.664 250.964C270.664 253.694 269.08 256.405 265.503 259.082L266.701 260.684C270.539 257.811 272.664 254.576 272.664 250.964H270.664ZM265.503 259.082C261.922 261.762 257.145 263.963 251.131 265.659L251.674 267.584C257.843 265.844 262.866 263.554 266.701 260.684L265.503 259.082ZM251.15 265.654C245.148 267.216 238.745 268 231.935 268V270C238.899 270 245.473 269.198 251.654 267.589L251.15 265.654ZM231.935 268C221.9 268 213.079 265.661 205.44 261.011L204.4 262.719C212.388 267.582 221.577 270 231.935 270V268ZM205.447 261.015C197.927 256.358 192.091 249.957 187.934 241.79L186.151 242.697C190.469 251.178 196.552 257.859 204.394 262.715L205.447 261.015ZM187.937 241.795C183.775 233.49 181.686 224.264 181.686 214.099H179.686C179.686 224.547 181.835 234.084 186.149 242.691L187.937 241.795ZM181.686 214.099C181.686 203.536 183.842 194.186 188.127 186.023L186.356 185.094C181.901 193.58 179.686 203.257 179.686 214.099H181.686ZM188.121 186.034C192.539 177.867 198.635 171.529 206.417 166.999L205.41 165.271C197.301 169.991 190.949 176.602 186.362 185.083L188.121 186.034ZM206.427 166.993C214.204 162.337 223.029 160 232.929 160V158C222.7 158 213.514 160.419 205.4 165.277L206.427 166.993ZM165.685 246.897C168.044 249.375 169.183 252.107 169.183 255.126H171.183C171.183 251.538 169.806 248.325 167.133 245.518L165.685 246.897ZM169.183 255.126C169.183 258.119 168.001 260.62 165.563 262.688L166.857 264.213C169.716 261.788 171.183 258.74 171.183 255.126H169.183ZM165.544 262.704C163.181 264.815 160.695 265.82 158.066 265.82V267.82C161.263 267.82 164.208 266.579 166.876 264.196L165.544 262.704ZM158.066 265.82C154.917 265.82 152.27 264.627 150.068 262.186L148.583 263.526C151.149 266.37 154.329 267.82 158.066 267.82V265.82ZM150.072 262.19L112.721 220.311L111.228 221.642L148.579 263.521L150.072 262.19ZM112.974 220.977V220.944H110.974V220.977H112.974ZM112.695 220.251C110.611 218.083 109.33 215.137 109.33 211.889H107.33C107.33 215.674 108.825 219.111 111.254 221.637L112.695 220.251ZM109.33 211.889C109.33 208.622 110.625 205.661 112.73 203.49L111.294 202.098C108.841 204.628 107.33 208.082 107.33 211.889H109.33ZM112.754 203.464L147.088 165.418L145.604 164.078L111.269 202.124L112.754 203.464ZM147.052 165.456C149.396 163.117 152.061 161.982 155.086 161.982V159.982C151.49 159.982 148.328 161.358 145.64 164.04L147.052 165.456ZM155.086 161.982C157.67 161.982 159.994 163.08 162.089 165.415L163.578 164.08C161.17 161.395 158.33 159.982 155.086 159.982V161.982ZM162.127 165.456C164.389 167.712 165.409 169.917 165.409 172.081H167.409C167.409 169.224 166.045 166.54 163.54 164.04L162.127 165.456ZM165.409 172.081C165.409 174.876 164.02 177.596 160.984 180.247L162.299 181.753C165.619 178.855 167.409 175.629 167.409 172.081H165.409ZM160.933 180.294L133.504 207.844L134.921 209.255L162.35 181.706L160.933 180.294ZM133.452 209.199L165.649 246.857L167.169 245.557L134.972 207.9L133.452 209.199ZM104.838 211.852L104.837 172.081L102.837 172.081L102.838 211.852L104.838 211.852ZM104.837 172.081C104.837 168.404 103.622 165.301 101.166 162.851L99.7537 164.266C101.801 166.309 102.837 168.888 102.837 172.081H104.837ZM101.186 162.871C98.7355 160.282 95.6205 158.991 91.9185 158.991V160.991C95.1027 160.991 97.682 162.078 99.7338 164.246L101.186 162.871ZM91.9185 158.991C88.2164 158.991 85.1014 160.282 82.6507 162.871L84.1031 164.246C86.1549 162.078 88.7343 160.991 91.9185 160.991V158.991ZM82.6706 162.851C80.2153 165.301 79 168.404 79 172.081H81C81 168.888 82.036 166.309 84.0832 164.266L82.6706 162.851ZM79 172.081V254.77H81V172.081H79ZM79 254.77C79 258.448 80.2143 261.605 82.6506 264.179L84.1031 262.804C82.037 260.621 81 257.964 81 254.77H79ZM82.6706 264.199C85.1257 266.649 88.2347 267.861 91.9185 267.861V265.861C88.716 265.861 86.1306 264.826 84.0832 262.783L82.6706 264.199ZM91.9185 267.861C95.6022 267.861 98.7112 266.649 101.166 264.199L99.7537 262.783C97.7063 264.826 95.1209 265.861 91.9185 265.861V267.861ZM101.186 264.179C103.623 261.605 104.837 258.448 104.837 254.77H102.837C102.837 257.964 101.8 260.621 99.7338 262.804L101.186 264.179ZM440.371 243.131C445.23 234.511 447.651 224.826 447.651 214.099H445.651C445.651 224.513 443.304 233.855 438.629 242.149L440.371 243.131ZM447.651 214.099C447.651 203.372 445.23 193.75 440.368 185.26L438.632 186.254C443.304 194.412 445.651 203.685 445.651 214.099H447.651ZM440.371 185.266C435.514 176.651 428.827 169.976 420.319 165.261L419.349 167.01C427.528 171.543 433.95 177.949 438.629 186.248L440.371 185.266ZM420.336 165.27C411.966 160.421 402.72 158 392.62 158V160C402.385 160 411.282 162.336 419.333 167L420.336 165.27ZM392.62 158C382.391 158 373.079 160.419 364.707 165.27L365.709 167C373.758 162.337 382.721 160 392.62 160V158ZM364.717 165.264C356.343 169.981 349.724 176.655 344.87 185.266L346.612 186.248C351.293 177.945 357.652 171.539 365.699 167.006L364.717 165.264ZM344.873 185.26C340.011 193.75 337.59 203.372 337.59 214.099H339.59C339.59 203.685 341.937 194.412 346.609 186.254L344.873 185.26ZM337.59 214.099C337.59 224.826 340.011 234.511 344.87 243.131L346.612 242.149C341.937 233.855 339.59 224.513 339.59 214.099H337.59ZM344.873 243.137C349.729 251.614 356.347 258.22 364.717 262.934L365.699 261.192C357.648 256.657 351.288 250.313 346.609 242.143L344.873 243.137ZM364.717 262.934C373.088 267.649 382.396 270 392.62 270V268C382.716 268 373.749 265.726 365.699 261.192L364.717 262.934ZM392.62 270C402.715 270 411.957 267.648 420.325 262.934L419.344 261.192C411.291 265.727 402.39 268 392.62 268V270ZM420.319 262.938C428.823 258.224 435.51 251.618 440.368 243.137L438.632 242.143C433.955 250.309 427.532 256.653 419.349 261.188L420.319 262.938ZM417.768 197.34C420.456 202.195 421.814 207.772 421.814 214.099H423.814C423.814 207.477 422.39 201.559 419.517 196.371L417.768 197.34ZM421.814 214.099C421.814 220.426 420.456 226.003 417.768 230.858L419.517 231.827C422.39 226.639 423.814 220.721 423.814 214.099H421.814ZM417.758 230.876C415.19 235.743 411.673 239.502 407.204 242.178L408.231 243.894C413.031 241.02 416.797 236.983 419.527 231.809L417.758 230.876ZM407.193 242.185C402.856 244.857 398.007 246.198 392.62 246.198V248.198C398.358 248.198 403.573 246.764 408.242 243.887L407.193 242.185ZM392.62 246.198C387.234 246.198 382.314 244.857 377.839 242.178L376.811 243.894C381.606 246.765 386.883 248.198 392.62 248.198V246.198ZM377.85 242.185C373.506 239.508 369.98 235.742 367.275 230.858L365.525 231.827C368.382 236.985 372.139 241.015 376.8 243.887L377.85 242.185ZM367.284 230.876C364.722 226.018 363.427 220.434 363.427 214.099H361.427C361.427 220.713 362.781 226.625 365.515 231.809L367.284 230.876ZM363.427 214.099C363.427 207.764 364.722 202.181 367.284 197.322L365.515 196.389C362.781 201.573 361.427 207.485 361.427 214.099H363.427ZM367.28 197.331C369.987 192.315 373.512 188.488 377.85 185.815L376.8 184.113C372.133 186.989 368.375 191.09 365.52 196.381L367.28 197.331ZM377.839 185.822C382.314 183.143 387.234 181.802 392.62 181.802V179.802C386.883 179.802 381.606 181.235 376.811 184.106L377.839 185.822ZM392.62 181.802C398.007 181.802 402.856 183.143 407.193 185.815L408.242 184.113C403.573 181.236 398.358 179.802 392.62 179.802V181.802ZM407.204 185.822C411.667 188.494 415.183 192.313 417.753 197.313L419.532 196.399C416.804 191.092 413.038 186.984 408.231 184.106L407.204 185.822ZM547.238 162.18C550.169 162.18 552.558 163.145 554.477 165.059L555.89 163.643C553.571 161.33 550.663 160.18 547.238 160.18V162.18ZM554.5 165.082C556.406 166.865 557.362 169.106 557.362 171.883H559.362C559.362 168.582 558.198 165.802 555.866 163.621L554.5 165.082ZM557.362 171.883C557.362 173.266 556.893 175.1 555.859 177.422L557.686 178.236C558.77 175.801 559.362 173.67 559.362 171.883H557.362ZM555.862 177.415L518.716 259.072L520.537 259.901L557.683 178.243L555.862 177.415ZM518.702 259.105C517.842 261.19 516.565 262.819 514.875 264.023L516.035 265.652C518.053 264.214 519.557 262.276 520.551 259.868L518.702 259.105ZM514.846 264.045C513.29 265.239 511.497 265.899 509.437 266.02L509.554 268.016C511.997 267.873 514.177 267.079 516.064 265.631L514.846 264.045ZM509.386 266.024L507.598 266.222L507.818 268.21L509.606 268.012L509.386 266.024ZM507.708 266.216C505.666 266.216 503.738 265.621 501.905 264.402L500.798 266.067C502.938 267.49 505.248 268.216 507.708 268.216V266.216ZM501.969 264.447C500.256 263.105 498.895 261.325 497.895 259.08L496.068 259.893C497.187 262.405 498.739 264.457 500.735 266.021L501.969 264.447ZM497.893 259.074L460.945 177.417L459.123 178.241L496.07 259.899L497.893 259.074ZM460.95 177.427C460.073 175.428 459.644 173.45 459.644 171.486H457.644C457.644 173.751 458.141 176.001 459.118 178.23L460.95 177.427ZM459.644 171.486C459.644 169.167 460.618 167.04 462.705 165.08L461.336 163.622C458.921 165.891 457.644 168.521 457.644 171.486H459.644ZM462.727 165.059C464.782 163.008 467.306 161.982 470.364 161.982V159.982C466.8 159.982 463.762 161.202 461.314 163.643L462.727 165.059ZM470.364 161.982C472.694 161.982 474.828 162.591 476.787 163.812L477.845 162.115C475.566 160.694 473.065 159.982 470.364 159.982V161.982ZM476.787 163.812C478.729 165.024 480.188 166.716 481.17 168.92L482.997 168.107C481.86 165.554 480.141 163.547 477.845 162.115L476.787 163.812ZM481.167 168.914L508.58 231.545L510.412 230.743L482.999 168.113L481.167 168.914ZM510.413 231.544L537.626 169.111L535.793 168.312L508.579 230.745L510.413 231.544ZM537.631 169.1C538.633 166.727 539.984 164.973 541.66 163.778L540.499 162.15C538.467 163.598 536.905 165.676 535.788 168.323L537.631 169.1ZM541.66 163.778C543.33 162.588 545.158 162.06 547.179 162.178L547.296 160.182C544.815 160.036 542.537 160.697 540.499 162.15L541.66 163.778ZM668.381 220.021C670.987 217.854 672.371 215.01 672.515 211.564L670.516 211.481C670.395 214.377 669.263 216.687 667.102 218.483L668.381 220.021ZM672.515 211.523C672.515 201.968 670.153 193.075 665.43 184.862L663.696 185.859C668.243 193.766 670.515 202.314 670.515 211.523H672.515ZM665.43 184.862C660.713 176.658 654.37 170.127 646.411 165.281L645.371 166.989C653.038 171.657 659.144 177.942 663.696 185.859L665.43 184.862ZM646.417 165.285C638.584 160.434 630.192 158 621.259 158V160C629.807 160 637.836 162.323 645.364 166.985L646.417 165.285ZM621.259 158C612.203 158 603.685 160.363 595.721 165.076L596.74 166.797C604.403 162.262 612.57 160 621.259 160V158ZM595.732 165.07C587.747 169.661 581.333 176.34 576.485 185.073L578.234 186.044C582.921 177.6 589.087 171.198 596.729 166.804L595.732 165.07ZM576.485 185.073C571.623 193.832 569.209 203.98 569.209 215.486H571.209C571.209 204.266 573.561 194.462 578.234 186.044L576.485 185.073ZM569.209 215.486C569.209 225.814 571.495 235.165 576.086 243.518L577.839 242.554C573.424 234.523 571.209 225.508 571.209 215.486H569.209ZM576.089 243.524C580.684 251.748 587.174 258.221 595.541 262.934L596.523 261.192C588.469 256.655 582.246 250.444 577.835 242.548L576.089 243.524ZM595.547 262.938C604.061 267.657 613.967 270 625.232 270V268C614.25 268 604.688 265.718 596.517 261.188L595.547 262.938ZM625.232 270C631.702 270 638.101 268.924 644.425 266.776L643.781 264.882C637.657 266.962 631.476 268 625.232 268V270ZM644.425 266.776C650.723 264.636 655.807 262.01 659.635 258.873L658.367 257.326C654.779 260.266 649.931 262.793 643.781 264.882L644.425 266.776ZM659.618 258.886C663.484 255.855 665.563 252.355 665.563 248.387H663.563C663.563 251.555 661.934 254.529 658.384 257.312L659.618 258.886ZM665.563 248.387C665.563 245.461 664.451 242.899 662.29 240.743L660.877 242.158C662.688 243.966 663.563 246.028 663.563 248.387H665.563ZM662.29 240.743C660.118 238.575 657.481 237.477 654.432 237.477V239.477C656.946 239.477 659.076 240.362 660.877 242.158L662.29 240.743ZM654.432 237.477C652.124 237.477 649.72 238.125 647.232 239.366L648.125 241.156C650.405 240.019 652.503 239.477 654.432 239.477V237.477ZM647.165 239.403C646.487 239.809 645.217 240.61 643.364 241.798L644.444 243.481C646.3 242.291 647.545 241.507 648.192 241.119L647.165 239.403ZM643.381 241.787C641.746 242.791 639.438 243.82 636.425 244.866L637.081 246.756C640.16 245.687 642.619 244.602 644.428 243.492L643.381 241.787ZM636.463 244.854C633.555 245.737 629.43 246.198 624.04 246.198V248.198C629.509 248.198 633.86 247.734 637.044 246.768L636.463 244.854ZM624.04 246.198C617.11 246.198 610.901 244.091 605.38 239.864L604.164 241.452C610.032 245.945 616.669 248.198 624.04 248.198V246.198ZM605.391 239.873C599.901 235.541 596.374 229.614 594.827 222.025L592.867 222.425C594.498 230.428 598.254 236.789 604.153 241.443L605.391 239.873ZM593.847 223.225H659.398V221.225H593.847V223.225ZM659.398 223.225C662.804 223.225 665.812 222.157 668.381 220.021L667.102 218.483C664.903 220.312 662.349 221.225 659.398 221.225V223.225ZM595.027 202.595C596.385 195.564 599.253 190.402 603.556 186.986C607.865 183.566 613.73 181.802 621.259 181.802V179.802C613.427 179.802 607.076 181.639 602.313 185.419C597.545 189.205 594.487 194.844 593.064 202.216L595.027 202.595ZM621.259 181.802C627.251 181.802 632.592 183.703 637.316 187.525L638.574 185.97C633.499 181.864 627.716 179.802 621.259 179.802V181.802ZM637.316 187.525C642.037 191.344 644.593 195.867 645.094 201.113L647.085 200.923C646.526 195.07 643.653 190.079 638.574 185.97L637.316 187.525ZM645.089 201.018V202.405H647.089V201.018H645.089ZM646.089 201.405H594.046V203.405H646.089V201.405ZM768.579 244.622C768.579 247.172 769.221 249.377 770.567 251.168L772.166 249.967C771.129 248.587 770.579 246.828 770.579 244.622H768.579ZM770.561 251.161C775.443 257.79 781.756 262.598 789.481 265.573L790.2 263.706C782.828 260.868 776.826 256.295 772.172 249.975L770.561 251.161ZM789.481 265.573C797.153 268.527 805.42 270 814.273 270V268C805.646 268 797.624 266.566 790.2 263.706L789.481 265.573ZM814.273 270C820.765 270 827.055 268.717 833.135 266.156L832.358 264.313C826.52 266.772 820.494 268 814.273 268V270ZM833.128 266.159C839.362 263.589 844.469 259.859 848.423 254.962L846.867 253.705C843.14 258.321 838.315 261.858 832.366 264.31L833.128 266.159ZM848.431 254.951C852.416 249.878 854.405 243.977 854.405 237.288H852.405C852.405 243.549 850.554 249.011 846.858 253.716L848.431 254.951ZM854.405 237.288C854.405 230.001 852.714 224.021 849.236 219.44L847.643 220.65C850.786 224.79 852.405 230.305 852.405 237.288H854.405ZM849.236 219.44C845.828 214.952 841.657 211.605 836.728 209.419L835.917 211.247C840.522 213.29 844.429 216.417 847.643 220.65L849.236 219.44ZM836.728 209.419C831.901 207.279 825.892 205.216 818.712 203.226L818.177 205.153C825.299 207.127 831.209 209.16 835.917 211.247L836.728 209.419ZM818.715 203.227C813.555 201.774 809.528 200.589 806.63 199.668L806.025 201.575C808.954 202.505 813.005 203.697 818.174 205.152L818.715 203.227ZM806.683 199.687C804.001 198.667 801.799 197.342 800.055 195.726L798.695 197.193C800.659 199.012 803.092 200.462 805.972 201.556L806.683 199.687ZM800.081 195.752C798.437 194.111 797.594 191.998 797.594 189.324H795.594C795.594 192.465 796.605 195.108 798.669 197.167L800.081 195.752ZM797.594 189.324C797.594 185.949 798.745 183.554 800.954 181.959C803.223 180.321 806.749 179.423 811.691 179.423V177.423C806.568 177.423 802.546 178.343 799.783 180.338C796.959 182.377 795.594 185.432 795.594 189.324H797.594ZM811.691 179.423C816.337 179.423 820.427 180.26 823.983 181.907L824.824 180.093C820.964 178.305 816.579 177.423 811.691 177.423V179.423ZM823.996 181.913C827.711 183.575 830.693 185.798 832.967 188.571L834.513 187.303C832.02 184.262 828.777 181.861 824.812 180.087L823.996 181.913ZM833.034 188.645C835.097 190.704 837.745 191.712 840.891 191.712V189.712C838.21 189.712 836.091 188.87 834.446 187.229L833.034 188.645ZM840.891 191.712C843.495 191.712 845.832 190.912 847.865 189.319L846.631 187.745C844.955 189.058 843.054 189.712 840.891 189.712V191.712ZM847.866 189.317C850.608 187.157 852.022 184.364 852.022 181H850.022C850.022 183.714 848.919 185.942 846.629 187.746L847.866 189.317ZM852.022 181C852.022 178.12 851.077 175.52 849.215 173.233L847.664 174.496C849.245 176.438 850.022 178.595 850.022 181H852.022ZM849.226 173.247C845.255 168.192 839.795 164.393 832.896 161.828L832.2 163.703C838.809 166.16 843.944 169.76 847.653 174.483L849.226 173.247ZM832.896 161.828C826.039 159.279 819.167 158 812.287 158V160C818.914 160 825.55 161.231 832.2 163.703L832.896 161.828ZM812.287 158C805.528 158 799.099 159.35 793.01 162.05L793.821 163.878C799.651 161.293 805.803 160 812.287 160V158ZM793.02 162.046C787.047 164.619 782.142 168.354 778.325 173.25L779.902 174.48C783.502 169.862 788.131 166.33 793.811 163.882L793.02 162.046ZM778.323 173.253C774.6 178.068 772.75 183.772 772.75 190.315H774.75C774.75 184.174 776.477 178.911 779.905 174.477L778.323 173.253ZM772.75 190.315C772.75 197.738 774.51 203.792 778.13 208.376L779.7 207.137C776.434 203.001 774.75 197.427 774.75 190.315H772.75ZM778.151 208.402C781.818 212.739 786.11 216.005 791.024 218.184L791.835 216.356C787.214 214.307 783.163 211.231 779.679 207.111L778.151 208.402ZM791.033 218.188C795.991 220.327 802.329 222.456 810.035 224.577L810.566 222.648C802.91 220.541 796.668 218.441 791.826 216.352L791.033 218.188ZM810.042 224.579C817.437 226.555 822.763 228.51 826.09 230.425L827.088 228.692C823.528 226.643 817.996 224.634 810.559 222.647L810.042 224.579ZM826.104 230.433C827.771 231.357 828.972 232.469 829.76 233.749C830.545 235.026 830.952 236.525 830.952 238.279H832.952C832.952 236.202 832.465 234.331 831.463 232.701C830.463 231.075 828.982 229.742 827.074 228.684L826.104 230.433ZM830.952 238.279C830.952 241.717 829.77 244.223 827.476 245.954C825.128 247.726 821.492 248.779 816.42 248.974L816.497 250.972C821.753 250.771 825.865 249.676 828.681 247.55C831.552 245.384 832.952 242.241 832.952 238.279H830.952ZM816.458 248.973C810.472 248.973 805.389 247.999 801.179 246.089L800.352 247.911C804.882 249.965 810.261 250.973 816.458 250.973V248.973ZM801.189 246.094C797.083 244.174 793.074 241.214 789.168 237.187L787.732 238.579C791.771 242.744 795.973 245.862 800.342 247.906L801.189 246.094ZM789.156 237.175C786.507 234.532 783.618 233.117 780.504 233.117V235.117C782.952 235.117 785.36 236.213 787.743 238.591L789.156 237.175ZM780.504 233.117C778.306 233.117 776.201 233.778 774.204 235.059L775.283 236.743C776.994 235.645 778.73 235.117 780.504 235.117V233.117ZM774.175 235.078C770.529 237.597 768.579 240.784 768.579 244.622H770.579C770.579 241.588 772.072 238.962 775.312 236.724L774.175 235.078ZM967.702 211.481C967.581 214.377 966.448 216.687 964.287 218.483L965.566 220.021C968.173 217.854 969.556 215.01 969.7 211.564L967.702 211.481ZM964.287 218.483C962.088 220.312 959.535 221.225 956.584 221.225V223.225C959.989 223.225 962.998 222.157 965.566 220.021L964.287 218.483ZM956.584 221.225H891.032V223.225H956.584V221.225ZM890.052 222.425C891.684 230.428 895.44 236.789 901.338 241.443L902.577 239.873C897.086 235.541 893.559 229.614 892.012 222.025L890.052 222.425ZM901.35 241.452C907.218 245.945 913.854 248.198 921.226 248.198V246.198C914.295 246.198 908.086 244.091 902.565 239.864L901.35 241.452ZM921.226 248.198C926.695 248.198 931.046 247.734 934.229 246.768L933.648 244.854C930.74 245.737 926.616 246.198 921.226 246.198V248.198ZM934.267 246.756C937.346 245.687 939.805 244.602 941.613 243.492L940.567 241.787C938.932 242.791 936.624 243.82 933.611 244.866L934.267 246.756ZM941.63 243.481C943.486 242.291 944.731 241.507 945.378 241.119L944.35 239.403C943.673 239.809 942.402 240.61 940.55 241.798L941.63 243.481ZM945.31 241.156C947.59 240.019 949.689 239.477 951.618 239.477V237.477C949.309 237.477 946.905 238.125 944.418 239.366L945.31 241.156ZM951.618 239.477C954.131 239.477 956.262 240.362 958.063 242.158L959.475 240.743C957.303 238.575 954.666 237.477 951.618 237.477V239.477ZM958.063 242.158C959.874 243.966 960.748 246.028 960.748 248.387H962.748C962.748 245.461 961.637 242.899 959.475 240.743L958.063 242.158ZM960.748 248.387C960.748 251.555 959.12 254.529 955.57 257.312L956.804 258.886C960.67 255.855 962.748 252.355 962.748 248.387H960.748ZM955.553 257.326C951.965 260.266 947.117 262.793 940.967 264.882L941.61 266.776C947.909 264.636 952.992 262.01 956.82 258.873L955.553 257.326ZM940.967 264.882C934.843 266.962 928.661 268 922.418 268V270C928.887 270 935.286 268.924 941.61 266.776L940.967 264.882ZM922.418 268C911.435 268 901.874 265.718 893.702 261.188L892.733 262.938C901.247 267.657 911.152 270 922.418 270V268ZM893.708 261.192C885.654 256.655 879.432 250.444 875.021 242.548L873.275 243.524C877.869 251.748 884.359 258.221 892.727 262.934L893.708 261.192ZM875.024 242.554C870.61 234.523 868.394 225.508 868.394 215.486H866.394C866.394 225.814 868.681 235.165 873.271 243.518L875.024 242.554ZM868.394 215.486C868.394 204.266 870.747 194.462 875.419 186.044L873.671 185.073C868.809 193.832 866.394 203.98 866.394 215.486H868.394ZM875.419 186.044C880.107 177.6 886.273 171.198 893.914 166.804L892.918 165.07C884.933 169.661 878.518 176.34 873.671 185.073L875.419 186.044ZM893.925 166.797C901.588 162.262 909.756 160 918.445 160V158C909.389 158 900.87 160.363 892.907 165.076L893.925 166.797ZM918.445 160C926.992 160 935.021 162.323 942.55 166.985L943.603 165.285C935.769 160.434 927.377 158 918.445 158V160ZM942.556 166.989C950.223 171.657 956.329 177.942 960.882 185.859L962.615 184.862C957.898 176.658 951.556 170.127 943.596 165.281L942.556 166.989ZM960.882 185.859C965.429 193.766 967.701 202.314 967.701 211.523H969.701C969.701 201.968 967.338 193.075 962.615 184.862L960.882 185.859ZM918.445 179.802C910.612 179.802 904.261 181.639 899.498 185.419C894.73 189.205 891.672 194.844 890.249 202.216L892.213 202.595C893.57 195.564 896.439 190.402 900.742 186.986C905.05 183.566 910.916 181.802 918.445 181.802V179.802ZM891.231 203.405H943.275V201.405H891.231V203.405ZM944.275 202.405V201.018H942.275V202.405H944.275ZM944.27 200.923C943.712 195.07 940.839 190.079 935.76 185.97L934.502 187.525C939.222 191.344 941.779 195.867 942.279 201.113L944.27 200.923ZM935.76 185.97C930.684 181.864 924.901 179.802 918.445 179.802V181.802C924.437 181.802 929.777 183.703 934.502 187.525L935.76 185.97ZM1084.62 161.661C1082.16 159.212 1079.05 158 1075.37 158V160C1078.57 160 1081.16 161.034 1083.2 163.077L1084.62 161.661ZM1075.37 158C1071.67 158 1068.55 159.291 1066.1 161.88L1067.55 163.255C1069.6 161.087 1072.18 160 1075.37 160V158ZM1066.12 161.86C1064.92 163.054 1064.17 164.14 1063.75 165.441C1063.33 166.71 1063.26 168.103 1063.26 169.829H1065.26C1065.26 168.119 1065.34 167.005 1065.65 166.063C1065.94 165.154 1066.48 164.328 1067.53 163.275L1066.12 161.86ZM1064.94 169.096C1060.95 165.397 1053.99 162.013 1049.91 160.769L1049.32 162.682C1053.21 163.866 1059.88 167.125 1063.57 170.561L1064.94 169.096ZM1049.91 160.769C1044.03 158.977 1037.93 158 1031.47 158V160C1037.72 160 1043.63 160.945 1049.32 162.682L1049.91 160.769ZM1031.47 158C1022.41 158 1014.07 160.433 1006.5 165.293L1007.58 166.977C1014.83 162.324 1022.79 160 1031.47 160V158ZM1006.5 165.291C999.048 170.022 993.171 176.706 988.86 185.309L990.648 186.205C994.812 177.894 1000.46 171.498 1007.57 166.979L1006.5 165.291ZM988.863 185.303C984.544 193.785 982.397 203.392 982.397 214.099H984.397C984.397 203.665 986.488 194.377 990.645 186.21L988.863 185.303ZM982.397 214.099C982.397 224.806 984.544 234.413 988.863 242.895L990.645 241.988C986.488 233.822 984.397 224.533 984.397 214.099H982.397ZM988.868 242.906C993.313 251.373 999.321 258.048 1006.89 262.905L1007.97 261.221C1000.71 256.564 994.934 250.158 990.639 241.977L988.868 242.906ZM1006.9 262.912C1014.49 267.64 1022.95 270 1032.26 270V268C1023.3 268 1015.21 265.736 1007.96 261.215L1006.9 262.912ZM1032.26 270C1038.63 270 1044.67 268.646 1050.37 265.939L1049.51 264.133C1044.09 266.711 1038.34 268 1032.26 268V270ZM1050.38 265.935C1056.17 263.115 1060.79 259.736 1064.21 255.78L1062.69 254.472C1059.49 258.18 1055.11 261.407 1049.5 264.137L1050.38 265.935ZM1062.45 255.165C1062.59 258.812 1063.8 261.892 1066.1 264.335L1067.55 262.962C1065.62 260.912 1064.57 258.311 1064.45 255.088L1062.45 255.165ZM1066.12 264.357C1068.58 266.806 1071.68 268.018 1075.37 268.018V266.018C1072.17 266.018 1069.58 264.984 1067.53 262.941L1066.12 264.357ZM1075.37 268.018C1079.05 268.018 1082.16 266.806 1084.62 264.357L1083.2 262.941C1081.16 264.984 1078.57 266.018 1075.37 266.018V268.018ZM1084.64 264.336C1087.07 261.762 1088.29 258.605 1088.29 254.928H1086.29C1086.29 258.121 1085.25 260.778 1083.18 262.961L1084.64 264.336ZM1088.29 171.09C1088.29 167.292 1087.08 164.119 1084.62 161.661L1083.2 163.077C1085.24 165.112 1086.29 167.753 1086.29 171.09H1088.29ZM1055.55 237.225C1050.32 243.207 1043.58 246.198 1035.24 246.198V248.198C1044.12 248.198 1051.42 244.979 1057.05 238.541L1055.55 237.225ZM1035.24 246.198C1026.91 246.198 1020.17 243.207 1014.94 237.225L1013.43 238.541C1019.06 244.979 1026.36 248.198 1035.24 248.198V246.198ZM1014.95 237.242C1009.83 231.106 1007.24 223.416 1007.24 214.099H1005.24C1005.24 223.809 1007.95 231.975 1013.42 238.524L1014.95 237.242ZM1007.24 214.099C1007.24 204.789 1009.89 197.102 1015.14 190.966L1013.63 189.665C1008.02 196.214 1005.24 204.382 1005.24 214.099H1007.24ZM1015.14 190.966C1020.38 184.849 1027.05 181.802 1035.24 181.802V179.802C1026.48 179.802 1019.25 183.097 1013.63 189.665L1015.14 190.966ZM1035.24 181.802C1043.57 181.802 1050.31 184.853 1055.54 190.966L1057.06 189.665C1051.43 183.093 1044.13 179.802 1035.24 179.802V181.802ZM1055.54 190.966C1060.79 197.102 1063.44 204.789 1063.44 214.099H1065.44C1065.44 204.382 1062.66 196.214 1057.06 189.665L1055.54 190.966ZM1063.44 214.099C1063.44 223.409 1060.79 231.097 1055.54 237.233L1057.06 238.533C1062.66 231.985 1065.44 223.816 1065.44 214.099H1063.44ZM1107.76 249.967C1106.72 248.587 1106.17 246.828 1106.17 244.622H1104.17C1104.17 247.172 1104.82 249.377 1106.16 251.168L1107.76 249.967ZM1106.17 244.622C1106.17 241.588 1107.67 238.962 1110.91 236.724L1109.77 235.078C1106.12 237.597 1104.17 240.784 1104.17 244.622H1106.17ZM1110.88 236.743C1112.59 235.645 1114.32 235.117 1116.1 235.117V233.117C1113.9 233.117 1111.8 233.778 1109.8 235.059L1110.88 236.743ZM1116.1 235.117C1118.55 235.117 1120.95 236.213 1123.34 238.591L1124.75 237.175C1122.1 234.532 1119.21 233.117 1116.1 233.117V235.117ZM1123.33 238.579C1127.37 242.744 1131.57 245.862 1135.94 247.906L1136.78 246.094C1132.68 244.174 1128.67 241.214 1124.76 237.187L1123.33 238.579ZM1135.95 247.911C1140.48 249.965 1145.86 250.973 1152.05 250.973V248.973C1146.07 248.973 1140.98 247.999 1136.77 246.089L1135.95 247.911ZM1152.09 250.972C1157.35 250.771 1161.46 249.676 1164.28 247.55C1167.15 245.384 1168.55 242.241 1168.55 238.279H1166.55C1166.55 241.717 1165.36 244.223 1163.07 245.954C1160.72 247.726 1157.09 248.779 1152.01 248.974L1152.09 250.972ZM1168.55 238.279C1168.55 236.202 1168.06 234.331 1167.06 232.701C1166.06 231.075 1164.58 229.742 1162.67 228.684L1161.7 230.433C1163.37 231.357 1164.57 232.469 1165.35 233.749C1166.14 235.026 1166.55 236.525 1166.55 238.279H1168.55ZM1162.68 228.692C1159.12 226.643 1153.59 224.634 1146.15 222.647L1145.64 224.579C1153.03 226.555 1158.36 228.51 1161.68 230.425L1162.68 228.692ZM1146.16 222.648C1138.5 220.541 1132.26 218.441 1127.42 216.352L1126.63 218.188C1131.59 220.327 1137.92 222.456 1145.63 224.577L1146.16 222.648ZM1127.43 216.356C1122.81 214.307 1118.76 211.231 1115.27 207.111L1113.75 208.402C1117.41 212.739 1121.7 216.005 1126.62 218.184L1127.43 216.356ZM1115.29 207.137C1112.03 203.001 1110.34 197.427 1110.34 190.315H1108.34C1108.34 197.738 1110.1 203.792 1113.72 208.376L1115.29 207.137ZM1110.34 190.315C1110.34 184.174 1112.07 178.911 1115.5 174.477L1113.92 173.253C1110.19 178.068 1108.34 183.772 1108.34 190.315H1110.34ZM1115.5 174.48C1119.1 169.862 1123.73 166.33 1129.41 163.882L1128.61 162.046C1122.64 164.619 1117.74 168.354 1113.92 173.25L1115.5 174.48ZM1129.42 163.878C1135.25 161.293 1141.4 160 1147.88 160V158C1141.12 158 1134.69 159.35 1128.6 162.05L1129.42 163.878ZM1147.88 160C1154.51 160 1161.14 161.231 1167.79 163.703L1168.49 161.828C1161.63 159.279 1154.76 158 1147.88 158V160ZM1167.79 163.703C1174.4 166.16 1179.54 169.76 1183.25 174.483L1184.82 173.247C1180.85 168.192 1175.39 164.393 1168.49 161.828L1167.79 163.703ZM1183.26 174.496C1184.84 176.438 1185.62 178.595 1185.62 181H1187.62C1187.62 178.12 1186.67 175.52 1184.81 173.233L1183.26 174.496ZM1185.62 181C1185.62 183.714 1184.51 185.942 1182.22 187.746L1183.46 189.317C1186.2 187.157 1187.62 184.364 1187.62 181H1185.62ZM1182.23 187.745C1180.55 189.058 1178.65 189.712 1176.49 189.712V191.712C1179.09 191.712 1181.43 190.912 1183.46 189.319L1182.23 187.745ZM1176.49 189.712C1173.8 189.712 1171.69 188.87 1170.04 187.229L1168.63 188.645C1170.69 190.704 1173.34 191.712 1176.49 191.712V189.712ZM1170.11 187.303C1167.61 184.262 1164.37 181.861 1160.41 180.087L1159.59 181.913C1163.31 183.575 1166.29 185.798 1168.56 188.571L1170.11 187.303ZM1160.42 180.093C1156.56 178.305 1152.17 177.423 1147.29 177.423V179.423C1151.93 179.423 1156.02 180.26 1159.58 181.907L1160.42 180.093ZM1147.29 177.423C1142.16 177.423 1138.14 178.343 1135.38 180.338C1132.55 182.377 1131.19 185.432 1131.19 189.324H1133.19C1133.19 185.949 1134.34 183.554 1136.55 181.959C1138.82 180.321 1142.34 179.423 1147.29 179.423V177.423ZM1131.19 189.324C1131.19 192.465 1132.2 195.108 1134.26 197.167L1135.68 195.752C1134.03 194.111 1133.19 191.998 1133.19 189.324H1131.19ZM1134.29 197.193C1136.25 199.012 1138.69 200.462 1141.57 201.556L1142.28 199.687C1139.6 198.667 1137.39 197.342 1135.65 195.726L1134.29 197.193ZM1141.62 201.575C1144.55 202.505 1148.6 203.697 1153.77 205.152L1154.31 203.227C1149.15 201.774 1145.12 200.589 1142.22 199.668L1141.62 201.575ZM1153.77 205.153C1160.89 207.127 1166.8 209.16 1171.51 211.247L1172.32 209.419C1167.5 207.279 1161.49 205.216 1154.31 203.226L1153.77 205.153ZM1171.51 211.247C1176.12 213.29 1180.02 216.417 1183.24 220.65L1184.83 219.44C1181.42 214.952 1177.25 211.605 1172.32 209.419L1171.51 211.247ZM1183.24 220.65C1186.38 224.79 1188 230.305 1188 237.288H1190C1190 230.001 1188.31 224.021 1184.83 219.44L1183.24 220.65ZM1188 237.288C1188 243.549 1186.15 249.011 1182.45 253.716L1184.03 254.951C1188.01 249.878 1190 243.977 1190 237.288H1188ZM1182.46 253.705C1178.73 258.321 1173.91 261.858 1167.96 264.31L1168.72 266.159C1174.96 263.589 1180.06 259.859 1184.02 254.962L1182.46 253.705ZM1167.95 264.313C1162.11 266.772 1156.09 268 1149.87 268V270C1156.36 270 1162.65 268.717 1168.73 266.156L1167.95 264.313ZM1149.87 268C1141.24 268 1133.22 266.566 1125.79 263.706L1125.08 265.573C1132.75 268.527 1141.01 270 1149.87 270V268ZM1125.79 263.706C1118.42 260.868 1112.42 256.295 1107.77 249.975L1106.16 251.161C1111.04 257.79 1117.35 262.598 1125.08 265.573L1125.79 263.706ZM104.837 254.77L104.838 211.852L102.838 211.852L102.837 254.77L104.837 254.77ZM1088.29 254.928V171.09H1086.29V254.928H1088.29Z" fill="#64647A" mask="url(#path-3-inside-1_1_1941)"/>
</g>
</g>
<defs>
<filter id="filter0_d_1_1941" x="0" y="0" width="1270" height="300" filterUnits="userSpaceOnUse" color-interpolation-filters="sRGB">
<feFlood flood-opacity="0" result="BackgroundImageFix"/>
<feColorMatrix in="SourceAlpha" type="matrix" values="0 0 0 0 0 0 0 0 0 0 0 0 0 0 0 0 0 0 127 0" result="hardAlpha"/>
<feOffset dy="6"/>
<feGaussianBlur stdDeviation="25"/>
<feColorMatrix type="matrix" values="0 0 0 0 0 0 0 0 0 0 0 0 0 0 0 0 0 0 0.1 0"/>
<feBlend mode="normal" in2="BackgroundImageFix" result="effect1_dropShadow_1_1941"/>
<feBlend mode="normal" in="SourceGraphic" in2="effect1_dropShadow_1_1941" result="shape"/>
</filter>
</defs>
</svg>
