<svg width="54" height="36" viewBox="0 0 54 36" fill="none" xmlns="http://www.w3.org/2000/svg">
<path fill-rule="evenodd" clip-rule="evenodd" d="M0.0461284 23.3067C0.0403129 23.4616 0.0373794 23.6172 0.0373794 23.7736C0.0373788 30.526 5.51134 36 12.2638 36C19.0163 36 24.4902 30.526 24.4902 23.7736C24.4902 17.0211 19.0163 11.5471 12.2638 11.5471C11.0149 11.5471 9.80974 11.7344 8.67485 12.0824C11.1581 6.65886 18.6186 1.82027 22.2236 -8.03068e-05C3.38586 3.71313 -0.417919 17.0943 0.0349094 23.3207L0.0461284 23.3067Z" fill="white"/>
<path fill-rule="evenodd" clip-rule="evenodd" d="M29.5344 23.3067C29.5286 23.4616 29.5257 23.6172 29.5257 23.7736C29.5257 30.526 34.9996 36 41.7521 36C48.5046 36 53.9785 30.526 53.9785 23.7736C53.9785 17.0211 48.5046 11.5471 41.7521 11.5471C40.5032 11.5471 39.298 11.7344 38.1631 12.0824C40.6464 6.65886 48.1069 1.82027 51.7119 -8.03068e-05C32.8741 3.71313 29.0704 17.0943 29.5232 23.3207L29.5344 23.3067Z" fill="white"/>
</svg>
